/* XPM */
static char * kspaceduel_xpm[] = {
"32 32 12 1",
" 	c None",
".	c #000000",
"+	c #FF0000",
"@	c #0000FF",
"#	c #000080",
"$	c #C05800",
"%	c #FF8000",
"&	c #FFA858",
"*	c #FFDCA8",
"=	c #585858",
"-	c #808080",
";	c #C3C3C3",
"                                ",
"                                ",
"                                ",
"                            ..  ",
"                           .++. ",
"                           .++. ",
"                            ..  ",
"                                ",
"                   ..           ",
"                  .++.          ",
"                  .++.          ",
"  .                ..           ",
" .@.                            ",
".@@@.                           ",
".@@@#.                          ",
" .@#@@.                         ",
"  .@@@#.    ...                 ",
"   .@#@@.  .$%.                 ",
"    .@@@@..$%&.                 ",
"     .@@..$%&*.                 ",
"      ...$%&*.                  ",
"       .$%&*.                   ",
"      .$%&*...                  ",
"    ..=%&*..@@.                 ",
"    .=--*..@@@@.                ",
"     .-;.  .@@#@.               ",
"      .;.   .#@@@.              ",
"       ..    .@@#@.             ",
"              .#@@@.            ",
"               .@@@.            ",
"                .@.             ",
"                 .              "};
