/* XPM */
static char * mini_kspaceduel_xpm[] = {
"16 16 6 1",
" 	c None",
".	c #FF0000",
"+	c #000000",
"@	c #0000BF",
"#	c #EF8016",
"$	c #0000DF",
"                ",
"                ",
"                ",
"             .+ ",
"                ",
"          .+    ",
" +++            ",
" +@@+  ++       ",
"  +@@++#+       ",
"   +@+#+        ",
"    +#++        ",
"  ++#+$$+       ",
"   ++ +$$+      ",
"    +  +$+      ",
"        ++      ",
"                "};
