P1
8 11
00001000
00111110
01111110
11111111
11111111
11111111
11111111
11111111
11111110
01111110
00111100
